<svg width="20" height="20" viewBox="0 0 20 20" fill="none" xmlns="http://www.w3.org/2000/svg">
<path d="M8 4.25C8.31365 4.25 8.59408 4.4452 8.70312 4.73926L9.21973 6.13379L9.67676 7.34863C10.0766 8.37497 10.3347 8.87964 10.7275 9.27246C11.2513 9.79617 11.9739 10.0805 13.8662 10.7803L15.2607 11.2969C15.5548 11.4059 15.75 11.6863 15.75 12C15.75 12.3137 15.5548 12.5941 15.2607 12.7031L13.8662 13.2197C11.9735 13.9197 11.25 14.2033 10.7275 14.7266C10.3352 15.1195 10.0767 15.6252 9.67676 16.6514L9.21973 17.8662L8.70312 19.2607C8.59408 19.5548 8.31365 19.75 8 19.75C7.68635 19.75 7.40592 19.5548 7.29688 19.2607L6.78027 17.8662C6.08035 15.9735 5.79666 15.25 5.27344 14.7275C4.88046 14.3352 4.3748 14.0767 3.34863 13.6768L2.13379 13.2197L0.739258 12.7031C0.445204 12.5941 0.25 12.3137 0.25 12C0.25 11.6863 0.445204 11.4059 0.739258 11.2969L2.13379 10.7803L3.34863 10.3232C4.37497 9.92343 4.87964 9.66528 5.27246 9.27246C5.79617 8.74875 6.08048 8.02612 6.78027 6.13379L7.29688 4.73926L7.3457 4.63379C7.47675 4.3995 7.72559 4.25 8 4.25ZM8 7.1543C7.45211 8.63126 7.06371 9.60231 6.33301 10.333C5.60231 11.0637 4.63126 11.4521 3.1543 12C4.63162 12.5482 5.60251 12.9367 6.33301 13.666C7.06394 14.3959 7.45239 15.3684 8 16.8447C8.54803 15.3679 8.9368 14.3973 9.66602 13.667C10.3959 12.9361 11.3684 12.5476 12.8447 12C11.3682 11.4523 10.3975 11.0636 9.66699 10.333C8.93629 9.60231 8.54789 8.63126 8 7.1543ZM15.999 0.25C16.3125 0.24977 16.5938 0.444479 16.7031 0.738281L16.9248 1.33594L16.9258 1.33789L17.123 1.86133C17.2873 2.28212 17.3658 2.42146 17.4727 2.52832C17.6144 2.67002 17.8144 2.76158 18.6611 3.0752H18.6621L19.2598 3.29688L19.3652 3.34473C19.5999 3.47543 19.7496 3.72452 19.75 3.99902C19.7503 4.31261 19.5556 4.59374 19.2617 4.70312L18.6641 4.9248L18.6621 4.92578C17.8145 5.23823 17.6141 5.33019 17.4717 5.47266C17.3654 5.5789 17.2868 5.71772 17.1221 6.13867L16.9248 6.66309L16.7031 7.26074C16.5942 7.55447 16.3143 7.74959 16.001 7.75C15.6875 7.75023 15.4062 7.55552 15.2969 7.26172L15.0752 6.66406L15.0742 6.66211C14.7618 5.81452 14.6698 5.61415 14.5273 5.47168C14.3856 5.32991 14.1856 5.23779 13.3379 4.92383V4.9248L12.7402 4.70312C12.4461 4.59442 12.2504 4.31455 12.25 4.00098C12.2497 3.68739 12.4444 3.40626 12.7383 3.29688L13.3359 3.0752L13.3379 3.07422L13.8613 2.87695C14.2821 2.71267 14.4215 2.6342 14.5283 2.52734C14.67 2.38568 14.7613 2.18545 15.0752 1.33691L15.2969 0.739258L15.3457 0.633789C15.4766 0.399785 15.725 0.250356 15.999 0.25ZM16 3.02246C15.8858 3.23347 15.7546 3.42221 15.5889 3.58789C15.4227 3.75408 15.2337 3.88574 15.0225 4C15.2334 4.11417 15.4222 4.24545 15.5879 4.41113C15.7539 4.57713 15.8858 4.76562 16 4.97656C16.1141 4.76586 16.2456 4.5776 16.4111 4.41211C16.5771 4.24612 16.7656 4.11417 16.9766 4C16.7659 3.88592 16.5776 3.75435 16.4121 3.58887C16.2459 3.42268 16.1143 3.23371 16 3.02246Z" fill="#34965C"/>
</svg>
